<svg xmlns="http://www.w3.org/2000/svg" width="41" height="38" viewBox="0 0 41 38">
    <g fill="none" fill-rule="nonzero">
        <path fill="#FF5722" d="M9.058 12.896a2.384 2.384 0 0 1-2.383-2.384V7.016a2.384 2.384 0 1 1 4.767 0v3.496a2.384 2.384 0 0 1-2.384 2.384z"/>
        <path fill="#FF5722" d="M9.058 12.896a2.384 2.384 0 0 1-2.383-2.384V7.016a2.384 2.384 0 1 1 4.767 0v3.496a2.384 2.384 0 0 1-2.384 2.384z"/>
        <path fill="#F4511E" d="M9.058 4.632c-.434 0-.84.117-1.191.32a2.382 2.382 0 0 1 1.191 2.064v3.496c0 .882-.48 1.652-1.191 2.064a2.384 2.384 0 0 0 3.576-2.064V7.016a2.384 2.384 0 0 0-2.385-2.384z"/>
        <path fill="#FF5722" d="M13.826 12.896a2.384 2.384 0 0 1-2.384-2.384V7.016a2.384 2.384 0 1 1 4.768 0v3.496a2.384 2.384 0 0 1-2.384 2.384z"/>
        <path fill="#FF5722" d="M13.826 12.896a2.384 2.384 0 0 1-2.384-2.384V7.016a2.384 2.384 0 1 1 4.768 0v3.496a2.384 2.384 0 0 1-2.384 2.384z"/>
        <path fill="#F4511E" d="M13.826 4.632c-.434 0-.841.117-1.192.32a2.382 2.382 0 0 1 1.192 2.064v3.496c0 .882-.48 1.652-1.192 2.064a2.384 2.384 0 0 0 3.576-2.064V7.016a2.384 2.384 0 0 0-2.384-2.384z"/>
        <path fill="#FF5722" d="M18.594 12.896a2.384 2.384 0 0 1-2.384-2.384V7.016a2.384 2.384 0 1 1 4.768 0v3.496a2.384 2.384 0 0 1-2.384 2.384z"/>
        <path fill="#FF5722" d="M18.594 12.896a2.384 2.384 0 0 1-2.384-2.384V7.016a2.384 2.384 0 1 1 4.768 0v3.496a2.384 2.384 0 0 1-2.384 2.384z"/>
        <path fill="#F4511E" d="M18.594 4.632c-.435 0-.841.117-1.192.32a2.382 2.382 0 0 1 1.192 2.064v3.496c0 .882-.48 1.652-1.192 2.064a2.384 2.384 0 0 0 3.576-2.064V7.016a2.384 2.384 0 0 0-2.384-2.384z"/>
        <path fill="#FF5722" d="M9.058 23.226a2.384 2.384 0 0 1-2.383-2.384v-3.496a2.384 2.384 0 1 1 4.767 0v3.496a2.384 2.384 0 0 1-2.384 2.384z"/>
        <path fill="#FFD740" d="M9.058 23.226a2.384 2.384 0 0 1-2.383-2.384v-3.496a2.384 2.384 0 1 1 4.767 0v3.496a2.384 2.384 0 0 1-2.384 2.384z"/>
        <path fill="#FFC400" d="M9.058 14.962c-.434 0-.84.117-1.191.32a2.382 2.382 0 0 1 1.191 2.064v3.496c0 .882-.48 1.652-1.191 2.064a2.384 2.384 0 0 0 3.576-2.064v-3.496a2.384 2.384 0 0 0-2.385-2.384z"/>
        <path fill="#FF5722" d="M13.826 23.226a2.384 2.384 0 0 1-2.384-2.384v-3.496a2.384 2.384 0 1 1 4.768 0v3.496a2.384 2.384 0 0 1-2.384 2.384z"/>
        <path fill="#FFD740" d="M13.826 23.226a2.384 2.384 0 0 1-2.384-2.384v-3.496a2.384 2.384 0 1 1 4.768 0v3.496a2.384 2.384 0 0 1-2.384 2.384z"/>
        <path fill="#FFC400" d="M13.826 14.962c-.434 0-.841.117-1.192.32a2.382 2.382 0 0 1 1.192 2.064v3.496c0 .882-.48 1.652-1.192 2.064a2.384 2.384 0 0 0 3.576-2.064v-3.496a2.384 2.384 0 0 0-2.384-2.384z"/>
        <path fill="#FF5722" d="M18.594 23.226a2.384 2.384 0 0 1-2.384-2.384v-3.496a2.384 2.384 0 1 1 4.768 0v3.496a2.384 2.384 0 0 1-2.384 2.384z"/>
        <path fill="#FFD740" d="M18.594 23.226a2.384 2.384 0 0 1-2.384-2.384v-3.496a2.384 2.384 0 1 1 4.768 0v3.496a2.384 2.384 0 0 1-2.384 2.384z"/>
        <path fill="#FFC400" d="M18.594 14.962c-.435 0-.841.117-1.192.32a2.382 2.382 0 0 1 1.192 2.064v3.496c0 .882-.48 1.652-1.192 2.064a2.384 2.384 0 0 0 3.576-2.064v-3.496a2.384 2.384 0 0 0-2.384-2.384z"/>
        <path fill="#FF5722" d="M26.536 23.226a2.384 2.384 0 0 1-2.384-2.384v-3.496a2.384 2.384 0 1 1 4.768 0v3.496a2.384 2.384 0 0 1-2.384 2.384z"/>
        <path fill="#FFD740" d="M26.536 23.226a2.384 2.384 0 0 1-2.384-2.384v-3.496a2.384 2.384 0 1 1 4.768 0v3.496a2.384 2.384 0 0 1-2.384 2.384z"/>
        <path fill="#FFC400" d="M26.536 14.962c-.434 0-.841.117-1.192.32a2.382 2.382 0 0 1 1.192 2.064v3.496c0 .882-.48 1.652-1.192 2.064a2.384 2.384 0 0 0 3.576-2.064v-3.496a2.384 2.384 0 0 0-2.384-2.384z"/>
        <path fill="#FF5722" d="M9.058 33.556a2.384 2.384 0 0 1-2.383-2.384v-3.497a2.384 2.384 0 1 1 4.767 0v3.497a2.384 2.384 0 0 1-2.384 2.384z"/>
        <path fill="#81D4FA" d="M9.058 33.556a2.384 2.384 0 0 1-2.383-2.384v-3.497a2.384 2.384 0 1 1 4.767 0v3.497a2.384 2.384 0 0 1-2.384 2.384z"/>
        <path fill="#4FC3F7" d="M9.058 25.292c-.434 0-.84.116-1.191.32a2.382 2.382 0 0 1 1.191 2.063v3.497c0 .882-.48 1.652-1.191 2.064a2.384 2.384 0 0 0 3.576-2.064v-3.497a2.384 2.384 0 0 0-2.385-2.383z"/>
        <path fill="#FF5722" d="M13.826 33.556a2.384 2.384 0 0 1-2.384-2.384v-3.497a2.384 2.384 0 1 1 4.768 0v3.497a2.384 2.384 0 0 1-2.384 2.384z"/>
        <path fill="#81D4FA" d="M13.826 33.556a2.384 2.384 0 0 1-2.384-2.384v-3.497a2.384 2.384 0 1 1 4.768 0v3.497a2.384 2.384 0 0 1-2.384 2.384z"/>
        <path fill="#4FC3F7" d="M13.826 25.292c-.434 0-.841.116-1.192.32a2.382 2.382 0 0 1 1.192 2.063v3.497c0 .882-.48 1.652-1.192 2.064a2.384 2.384 0 0 0 3.576-2.064v-3.497a2.384 2.384 0 0 0-2.384-2.383z"/>
        <path fill="#FF5722" d="M18.594 33.556a2.384 2.384 0 0 1-2.384-2.384v-3.497a2.384 2.384 0 1 1 4.768 0v3.497a2.384 2.384 0 0 1-2.384 2.384z"/>
        <path fill="#81D4FA" d="M18.594 33.556a2.384 2.384 0 0 1-2.384-2.384v-3.497a2.384 2.384 0 1 1 4.768 0v3.497a2.384 2.384 0 0 1-2.384 2.384z"/>
        <path fill="#4FC3F7" d="M18.594 25.292c-.435 0-.841.116-1.192.32a2.382 2.382 0 0 1 1.192 2.063v3.497c0 .882-.48 1.652-1.192 2.064a2.384 2.384 0 0 0 3.576-2.064v-3.497a2.384 2.384 0 0 0-2.384-2.383z"/>
        <path fill="#FF5722" d="M32.32 33.556a2.384 2.384 0 0 1-2.383-2.384v-3.497a2.384 2.384 0 1 1 4.767 0v3.497a2.384 2.384 0 0 1-2.383 2.384z"/>
        <path fill="#81D4FA" d="M32.32 33.556a2.384 2.384 0 0 1-2.383-2.384v-3.497a2.384 2.384 0 1 1 4.767 0v3.497a2.384 2.384 0 0 1-2.383 2.384z"/>
        <path fill="#4FC3F7" d="M32.32 25.292c-.434 0-.84.116-1.191.32a2.382 2.382 0 0 1 1.192 2.063v3.497c0 .882-.48 1.652-1.192 2.064a2.384 2.384 0 0 0 3.576-2.064v-3.497a2.384 2.384 0 0 0-2.384-2.383z"/>
        <path fill="#FF5722" d="M31.725 12.896a2.384 2.384 0 0 1-2.384-2.384V7.016a2.384 2.384 0 1 1 4.767 0v3.496a2.384 2.384 0 0 1-2.383 2.384z"/>
        <path fill="#FF5722" d="M31.725 12.896a2.384 2.384 0 0 1-2.384-2.384V7.016a2.384 2.384 0 1 1 4.767 0v3.496a2.384 2.384 0 0 1-2.383 2.384z"/>
        <path fill="#F4511E" d="M31.725 4.632c-.435 0-.842.117-1.192.32a2.382 2.382 0 0 1 1.192 2.064v3.496c0 .882-.48 1.652-1.192 2.064a2.384 2.384 0 0 0 3.576-2.064V7.016a2.384 2.384 0 0 0-2.384-2.384z"/>
        <path fill="#E38A54" d="M1.788 37.052A1.192 1.192 0 0 1 .596 35.86V2.328a1.192 1.192 0 0 1 2.384 0V35.86c0 .658-.534 1.192-1.192 1.192z"/>
        <path fill="#D67C47" d="M38.896 37.052a1.192 1.192 0 0 1-1.192-1.192V2.328a1.192 1.192 0 0 1 2.384 0V35.86c0 .658-.534 1.192-1.192 1.192z"/>
        <path fill="#000" d="M40.088 24.79c.329 0 .596-.267.596-.596V2.328A1.79 1.79 0 0 0 38.896.54a1.79 1.79 0 0 0-1.788 1.788v5.84h-2.404V7.016a2.983 2.983 0 0 0-2.98-2.98 2.983 2.983 0 0 0-2.98 2.98v1.152h-7.17V7.016a2.983 2.983 0 0 0-2.98-2.98c-.974 0-1.84.47-2.384 1.194a2.977 2.977 0 0 0-4.768 0 2.977 2.977 0 0 0-2.384-1.194 2.983 2.983 0 0 0-2.98 2.98v1.152H3.577v-5.84A1.79 1.79 0 0 0 1.788.54 1.79 1.79 0 0 0 0 2.328v1.491a.596.596 0 1 0 1.192 0V2.328a.597.597 0 0 1 1.192 0V35.86a.597.597 0 0 1-1.192 0V6.362a.596.596 0 1 0-1.192 0V35.86a1.79 1.79 0 0 0 1.788 1.788 1.79 1.79 0 0 0 1.788-1.788v-5.84h2.503v1.152a2.983 2.983 0 0 0 2.98 2.98c.973 0 1.84-.47 2.383-1.194a2.977 2.977 0 0 0 4.768 0 2.977 2.977 0 0 0 2.384 1.194 2.983 2.983 0 0 0 2.98-2.98v-1.153h1.304a.596.596 0 1 0 0-1.191h-1.304v-1.153a2.983 2.983 0 0 0-2.98-2.98c-.974 0-1.84.47-2.384 1.195a2.977 2.977 0 0 0-4.768 0 2.977 2.977 0 0 0-2.384-1.194 2.983 2.983 0 0 0-2.98 2.98v1.152H3.577V19.69h2.503v1.152a2.983 2.983 0 0 0 2.98 2.98c.973 0 1.84-.47 2.383-1.194a2.977 2.977 0 0 0 4.768 0 2.977 2.977 0 0 0 2.384 1.194 2.983 2.983 0 0 0 2.98-2.98V19.69h1.982v1.152a2.983 2.983 0 0 0 2.98 2.98 2.983 2.983 0 0 0 2.98-2.98V19.69h7.592v9.138H35.3v-1.153a2.983 2.983 0 0 0-2.98-2.98 2.983 2.983 0 0 0-2.98 2.98v1.153h-3.913a.596.596 0 1 0 0 1.191h3.914v1.153a2.983 2.983 0 0 0 2.98 2.98 2.983 2.983 0 0 0 2.98-2.98v-1.153h1.807v5.84a1.79 1.79 0 0 0 1.788 1.789 1.79 1.79 0 0 0 1.788-1.788v-9.124a.596.596 0 1 0-1.192 0v9.124a.597.597 0 0 1-1.192 0V2.328a.597.597 0 0 1 1.192 0v21.866c0 .329.267.595.596.595zm-21.494 1.098a1.79 1.79 0 0 1 1.788 1.787v3.497a1.79 1.79 0 0 1-1.788 1.788 1.79 1.79 0 0 1-1.788-1.788v-3.497a1.79 1.79 0 0 1 1.788-1.787zm-4.768 0a1.79 1.79 0 0 1 1.788 1.787v3.497a1.79 1.79 0 0 1-1.788 1.788 1.79 1.79 0 0 1-1.788-1.788v-3.497a1.79 1.79 0 0 1 1.788-1.787zm-6.555 1.787a1.79 1.79 0 0 1 1.787-1.787 1.79 1.79 0 0 1 1.788 1.787v3.497a1.79 1.79 0 0 1-1.788 1.788 1.79 1.79 0 0 1-1.787-1.788v-3.497zm26.837 3.497a1.79 1.79 0 0 1-1.787 1.788 1.79 1.79 0 0 1-1.788-1.788v-3.497a1.79 1.79 0 0 1 1.788-1.787 1.79 1.79 0 0 1 1.787 1.787v3.497zM29.937 7.016a1.79 1.79 0 0 1 1.788-1.788 1.79 1.79 0 0 1 1.787 1.788v3.496a1.79 1.79 0 0 1-1.787 1.788 1.79 1.79 0 0 1-1.788-1.788V7.016zM18.594 5.228a1.79 1.79 0 0 1 1.788 1.788v3.496a1.79 1.79 0 0 1-1.788 1.788 1.79 1.79 0 0 1-1.788-1.788V7.016a1.79 1.79 0 0 1 1.788-1.788zm-4.768 0a1.79 1.79 0 0 1 1.788 1.788v3.496a1.79 1.79 0 0 1-1.788 1.788 1.79 1.79 0 0 1-1.788-1.788V7.016a1.79 1.79 0 0 1 1.788-1.788zM7.271 7.016a1.79 1.79 0 0 1 1.787-1.788 1.79 1.79 0 0 1 1.788 1.788v3.496A1.79 1.79 0 0 1 9.058 12.3a1.79 1.79 0 0 1-1.787-1.788V7.016zM9.058 22.63a1.79 1.79 0 0 1-1.787-1.788v-3.496a1.79 1.79 0 0 1 1.787-1.788 1.79 1.79 0 0 1 1.788 1.788v3.496a1.79 1.79 0 0 1-1.788 1.788zm4.768 0a1.79 1.79 0 0 1-1.788-1.788v-3.496a1.79 1.79 0 0 1 1.788-1.788 1.79 1.79 0 0 1 1.788 1.788v3.496a1.79 1.79 0 0 1-1.788 1.788zm6.556-1.788a1.79 1.79 0 0 1-1.788 1.788 1.79 1.79 0 0 1-1.788-1.788v-3.496a1.79 1.79 0 0 1 1.788-1.788 1.79 1.79 0 0 1 1.788 1.788v3.496zm7.942 0a1.79 1.79 0 0 1-1.788 1.788 1.79 1.79 0 0 1-1.788-1.788v-3.496a1.79 1.79 0 0 1 1.788-1.788 1.79 1.79 0 0 1 1.788 1.788v3.496zm1.192-2.344v-1.152a2.983 2.983 0 0 0-2.98-2.98 2.983 2.983 0 0 0-2.98 2.98v1.152h-1.982v-1.152a2.983 2.983 0 0 0-2.98-2.98c-.974 0-1.84.47-2.384 1.194a2.977 2.977 0 0 0-4.768 0 2.977 2.977 0 0 0-2.384-1.194 2.983 2.983 0 0 0-2.98 2.98v1.152H3.577V9.36h2.503v1.152a2.983 2.983 0 0 0 2.98 2.98c.973 0 1.84-.47 2.383-1.194a2.977 2.977 0 0 0 4.768 0 2.977 2.977 0 0 0 2.384 1.194 2.983 2.983 0 0 0 2.98-2.98V9.36h7.17v1.152a2.983 2.983 0 0 0 2.98 2.98 2.983 2.983 0 0 0 2.98-2.98V9.36h2.404v9.138h-7.592z"/>
    </g>
</svg>
