<svg xmlns="http://www.w3.org/2000/svg" width="18" height="17" viewBox="0 0 18 17">
    <g fill="none" fill-rule="nonzero">
        <path fill="#FF5722" d="M3.882 5.813A1.022 1.022 0 0 1 2.861 4.79V3.292a1.022 1.022 0 1 1 2.043 0v1.499c0 .564-.458 1.021-1.022 1.021z"/>
        <path fill="#FF5722" d="M3.882 5.813A1.022 1.022 0 0 1 2.861 4.79V3.292a1.022 1.022 0 1 1 2.043 0v1.499c0 .564-.458 1.021-1.022 1.021z"/>
        <path fill="#F4511E" d="M3.882 2.27c-.186 0-.36.05-.51.138.305.177.51.506.51.884v1.499c0 .378-.205.708-.51.884a1.022 1.022 0 0 0 1.532-.885V3.293c0-.564-.458-1.021-1.022-1.021z"/>
        <path fill="#FF5722" d="M5.925 5.813A1.022 1.022 0 0 1 4.904 4.79V3.292a1.022 1.022 0 1 1 2.043 0v1.499c0 .564-.457 1.021-1.022 1.021z"/>
        <path fill="#FF5722" d="M5.925 5.813A1.022 1.022 0 0 1 4.904 4.79V3.292a1.022 1.022 0 1 1 2.043 0v1.499c0 .564-.457 1.021-1.022 1.021z"/>
        <path fill="#F4511E" d="M5.925 2.27c-.186 0-.36.05-.51.138.305.177.51.506.51.884v1.499c0 .378-.205.708-.51.884a1.022 1.022 0 0 0 1.532-.885V3.293c0-.564-.457-1.021-1.022-1.021z"/>
        <path fill="#FF5722" d="M7.969 5.813A1.022 1.022 0 0 1 6.947 4.79V3.292a1.022 1.022 0 1 1 2.043 0v1.499c0 .564-.457 1.021-1.021 1.021z"/>
        <path fill="#FF5722" d="M7.969 5.813A1.022 1.022 0 0 1 6.947 4.79V3.292a1.022 1.022 0 1 1 2.043 0v1.499c0 .564-.457 1.021-1.021 1.021z"/>
        <path fill="#F4511E" d="M7.969 2.27c-.186 0-.36.05-.511.138.305.177.51.506.51.884v1.499c0 .378-.205.708-.51.884A1.022 1.022 0 0 0 8.99 4.79V3.293c0-.564-.457-1.021-1.021-1.021z"/>
        <path fill="#FF5722" d="M3.882 10.24a1.022 1.022 0 0 1-1.021-1.022V7.72a1.022 1.022 0 1 1 2.043 0v1.498c0 .564-.458 1.022-1.022 1.022z"/>
        <path fill="#FFD740" d="M3.882 10.24a1.022 1.022 0 0 1-1.021-1.022V7.72a1.022 1.022 0 1 1 2.043 0v1.498c0 .564-.458 1.022-1.022 1.022z"/>
        <path fill="#FFC400" d="M3.882 6.698c-.186 0-.36.05-.51.137.305.177.51.506.51.885v1.498c0 .378-.205.708-.51.885a1.022 1.022 0 0 0 1.532-.885V7.72c0-.565-.458-1.022-1.022-1.022z"/>
        <path fill="#FF5722" d="M5.925 10.24a1.022 1.022 0 0 1-1.021-1.022V7.72a1.022 1.022 0 1 1 2.043 0v1.498c0 .564-.457 1.022-1.022 1.022z"/>
        <path fill="#FFD740" d="M5.925 10.24a1.022 1.022 0 0 1-1.021-1.022V7.72a1.022 1.022 0 1 1 2.043 0v1.498c0 .564-.457 1.022-1.022 1.022z"/>
        <path fill="#FFC400" d="M5.925 6.698c-.186 0-.36.05-.51.137.305.177.51.506.51.885v1.498c0 .378-.205.708-.51.885a1.022 1.022 0 0 0 1.532-.885V7.72c0-.565-.457-1.022-1.022-1.022z"/>
        <path fill="#FF5722" d="M7.969 10.24a1.022 1.022 0 0 1-1.022-1.022V7.72a1.022 1.022 0 1 1 2.043 0v1.498c0 .564-.457 1.022-1.021 1.022z"/>
        <path fill="#FFD740" d="M7.969 10.24a1.022 1.022 0 0 1-1.022-1.022V7.72a1.022 1.022 0 1 1 2.043 0v1.498c0 .564-.457 1.022-1.021 1.022z"/>
        <path fill="#FFC400" d="M7.969 6.698c-.186 0-.36.05-.511.137.305.177.51.506.51.885v1.498c0 .378-.205.708-.51.885a1.022 1.022 0 0 0 1.532-.885V7.72c0-.565-.457-1.022-1.021-1.022z"/>
        <path fill="#FF5722" d="M11.373 10.24a1.022 1.022 0 0 1-1.022-1.022V7.72a1.022 1.022 0 1 1 2.043 0v1.498c0 .564-.457 1.022-1.021 1.022z"/>
        <path fill="#FFD740" d="M11.373 10.24a1.022 1.022 0 0 1-1.022-1.022V7.72a1.022 1.022 0 1 1 2.043 0v1.498c0 .564-.457 1.022-1.021 1.022z"/>
        <path fill="#FFC400" d="M11.373 6.698c-.187 0-.361.05-.511.137.305.177.51.506.51.885v1.498c0 .378-.205.708-.51.885a1.022 1.022 0 0 0 1.532-.885V7.72c0-.565-.457-1.022-1.021-1.022z"/>
        <path fill="#FF5722" d="M3.882 14.667a1.022 1.022 0 0 1-1.021-1.022v-1.498a1.022 1.022 0 1 1 2.043 0v1.498c0 .564-.458 1.022-1.022 1.022z"/>
        <path fill="#81D4FA" d="M3.882 14.667a1.022 1.022 0 0 1-1.021-1.022v-1.498a1.022 1.022 0 1 1 2.043 0v1.498c0 .564-.458 1.022-1.022 1.022z"/>
        <path fill="#4FC3F7" d="M3.882 11.125c-.186 0-.36.05-.51.137.305.177.51.507.51.885v1.498c0 .378-.205.708-.51.885a1.022 1.022 0 0 0 1.532-.885v-1.498c0-.565-.458-1.022-1.022-1.022z"/>
        <path fill="#FF5722" d="M5.925 14.667a1.022 1.022 0 0 1-1.021-1.022v-1.498a1.022 1.022 0 1 1 2.043 0v1.498c0 .564-.457 1.022-1.022 1.022z"/>
        <path fill="#81D4FA" d="M5.925 14.667a1.022 1.022 0 0 1-1.021-1.022v-1.498a1.022 1.022 0 1 1 2.043 0v1.498c0 .564-.457 1.022-1.022 1.022z"/>
        <path fill="#4FC3F7" d="M5.925 11.125c-.186 0-.36.05-.51.137.305.177.51.507.51.885v1.498c0 .378-.205.708-.51.885a1.022 1.022 0 0 0 1.532-.885v-1.498c0-.565-.457-1.022-1.022-1.022z"/>
        <path fill="#FF5722" d="M7.969 14.667a1.022 1.022 0 0 1-1.022-1.022v-1.498a1.022 1.022 0 1 1 2.043 0v1.498c0 .564-.457 1.022-1.021 1.022z"/>
        <path fill="#81D4FA" d="M7.969 14.667a1.022 1.022 0 0 1-1.022-1.022v-1.498a1.022 1.022 0 1 1 2.043 0v1.498c0 .564-.457 1.022-1.021 1.022z"/>
        <path fill="#4FC3F7" d="M7.969 11.125c-.186 0-.36.05-.511.137.305.177.51.507.51.885v1.498c0 .378-.205.708-.51.885a1.022 1.022 0 0 0 1.532-.885v-1.498c0-.565-.457-1.022-1.021-1.022z"/>
        <path fill="#FF5722" d="M13.852 14.667a1.022 1.022 0 0 1-1.022-1.022v-1.498a1.022 1.022 0 1 1 2.043 0v1.498c0 .564-.457 1.022-1.021 1.022z"/>
        <path fill="#81D4FA" d="M13.852 14.667a1.022 1.022 0 0 1-1.022-1.022v-1.498a1.022 1.022 0 1 1 2.043 0v1.498c0 .564-.457 1.022-1.021 1.022z"/>
        <path fill="#4FC3F7" d="M13.852 11.125c-.186 0-.36.05-.511.137.305.177.51.507.51.885v1.498c0 .378-.205.708-.51.885a1.022 1.022 0 0 0 1.532-.885v-1.498c0-.565-.457-1.022-1.021-1.022z"/>
        <path fill="#FF5722" d="M13.596 5.813a1.022 1.022 0 0 1-1.021-1.022V3.292a1.022 1.022 0 1 1 2.043 0v1.499c0 .564-.457 1.021-1.022 1.021z"/>
        <path fill="#FF5722" d="M13.596 5.813a1.022 1.022 0 0 1-1.021-1.022V3.292a1.022 1.022 0 1 1 2.043 0v1.499c0 .564-.457 1.021-1.022 1.021z"/>
        <path fill="#F4511E" d="M13.596 2.27c-.186 0-.36.05-.51.138.305.177.51.506.51.884v1.499c0 .378-.205.708-.51.884a1.022 1.022 0 0 0 1.532-.885V3.293c0-.564-.457-1.021-1.022-1.021z"/>
        <path fill="#E38A54" d="M.766 16.165a.51.51 0 0 1-.51-.51V1.282a.51.51 0 0 1 1.021 0v14.371a.51.51 0 0 1-.51.511z"/>
        <path fill="#D67C47" d="M16.67 16.165a.51.51 0 0 1-.511-.51V1.282a.51.51 0 0 1 1.021 0v14.371a.51.51 0 0 1-.51.511z"/>
        <path fill="#000" d="M17.18 10.91a.255.255 0 0 0 .256-.256v-9.37a.767.767 0 0 0-1.533 0v2.502h-1.03v-.494c0-.704-.573-1.277-1.277-1.277s-1.277.573-1.277 1.277v.494H9.246v-.494a1.278 1.278 0 0 0-2.299-.765 1.276 1.276 0 0 0-2.043 0 1.276 1.276 0 0 0-2.299.765v.494H1.532V1.283a.767.767 0 0 0-1.532 0v.64a.255.255 0 1 0 .51 0v-.64a.256.256 0 0 1 .512 0v14.371a.256.256 0 0 1-.511 0V3.012a.255.255 0 1 0-.511 0v12.642a.767.767 0 0 0 1.532 0v-2.503h1.073v.494a1.278 1.278 0 0 0 2.299.765 1.276 1.276 0 0 0 2.043 0 1.276 1.276 0 0 0 2.299-.765v-.494h.56a.255.255 0 1 0 0-.51h-.56v-.494a1.278 1.278 0 0 0-2.299-.766 1.276 1.276 0 0 0-2.043 0 1.276 1.276 0 0 0-2.299.766v.493H1.532V8.724h1.073v.494a1.278 1.278 0 0 0 2.299.765 1.276 1.276 0 0 0 2.043 0 1.276 1.276 0 0 0 2.299-.765v-.494h.85v.494c0 .704.572 1.277 1.276 1.277.705 0 1.278-.573 1.278-1.277v-.494h3.253v3.916h-.774v-.493c0-.705-.573-1.277-1.277-1.277-.705 0-1.277.572-1.277 1.277v.493h-1.678a.255.255 0 1 0 0 .511h1.678v.494c0 .704.572 1.277 1.277 1.277.704 0 1.277-.573 1.277-1.277v-.494h.774v2.503a.767.767 0 0 0 1.533 0v-3.91a.255.255 0 1 0-.51 0v3.91a.256.256 0 0 1-.512 0V1.284a.256.256 0 0 1 .511 0v9.37c0 .141.114.256.255.256zm-9.211.47c.422 0 .766.344.766.767v1.498a.767.767 0 0 1-1.532 0v-1.498c0-.423.343-.767.766-.767zm-2.044 0c.423 0 .767.344.767.767v1.498a.767.767 0 0 1-1.533 0v-1.498c0-.423.344-.767.766-.767zm-2.809.767a.767.767 0 0 1 1.532 0v1.498a.767.767 0 0 1-1.532 0v-1.498zm11.502 1.498a.767.767 0 0 1-1.533 0v-1.498a.767.767 0 0 1 1.533 0v1.498zM12.83 3.292a.767.767 0 0 1 1.532 0v1.499a.767.767 0 0 1-1.532 0V3.292zm-4.861-.766c.422 0 .766.344.766.766v1.499a.767.767 0 0 1-1.532 0V3.292c0-.422.343-.766.766-.766zm-2.044 0c.423 0 .767.344.767.766v1.499a.767.767 0 0 1-1.533 0V3.292c0-.422.344-.766.766-.766zm-2.809.766a.767.767 0 0 1 1.532 0v1.499a.767.767 0 0 1-1.532 0V3.292zm.766 6.692a.767.767 0 0 1-.766-.766V7.72a.767.767 0 0 1 1.532 0v1.498a.767.767 0 0 1-.766.766zm2.043 0a.767.767 0 0 1-.766-.766V7.72a.767.767 0 0 1 1.533 0v1.498a.767.767 0 0 1-.767.766zm2.81-.766a.767.767 0 0 1-1.532 0V7.72a.767.767 0 0 1 1.532 0v1.498zm3.404 0a.767.767 0 0 1-1.533 0V7.72a.767.767 0 0 1 1.533 0v1.498zm.51-1.005V7.72c0-.705-.572-1.277-1.277-1.277-.704 0-1.277.572-1.277 1.277v.493h-.85V7.72a1.278 1.278 0 0 0-2.298-.766 1.276 1.276 0 0 0-2.043 0 1.276 1.276 0 0 0-2.299.766v.493H1.532V4.297h1.073v.494a1.278 1.278 0 0 0 2.299.765 1.276 1.276 0 0 0 2.043 0 1.276 1.276 0 0 0 2.299-.765v-.494h3.073v.494c0 .704.573 1.277 1.277 1.277s1.277-.573 1.277-1.277v-.494h1.03v3.916H12.65z"/>
    </g>
</svg>
