<svg xmlns="http://www.w3.org/2000/svg" width="28" height="24" viewBox="0 0 28 24">
    <g fill="none" fill-rule="nonzero">
        <path fill="#CEF8FF" d="M27.881 6.956a2.47 2.47 0 0 1-.484 1.466l-.008.01-11.204 14.515c-.222.296-.5.53-.813.688a2.261 2.261 0 0 1-1.643.157 2.306 2.306 0 0 1-1.215-.845L1.302 8.422a2.474 2.474 0 0 1-.484-1.466 2.474 2.474 0 0 1 .33-1.259l2.125-4.105.012-.02A2.294 2.294 0 0 1 5.265.424h18.17c.813 0 1.553.43 1.98 1.148l.021.04 2.114 4.085c.224.386.334.823.331 1.259z"/>
        <path fill="#50E6FF" d="M27.881 6.956a2.47 2.47 0 0 1-.484 1.466l-.008.01-11.204 14.515c-.222.296-.5.53-.813.688a2.261 2.261 0 0 1-1.022.244V.424h9.084c.814 0 1.554.43 1.98 1.148l.022.04 2.114 4.085c.224.386.334.823.331 1.259z"/>
        <path fill="#62EBFF" d="M27.881 6.739H.818a2.331 2.331 0 0 1 .33-1.217l2.125-3.97.012-.018a2.31 2.31 0 0 1 1.98-1.11h18.17a2.31 2.31 0 0 1 1.98 1.11l.021.038 2.114 3.95c.224.374.334.796.331 1.217z"/>
        <path fill="#31CAFF" d="M27.881 6.739H14.35V.424h9.084a2.31 2.31 0 0 1 1.98 1.11l.022.038 2.114 3.95c.224.374.334.796.331 1.217z"/>
        <path fill="#50E6FF" d="M20.664 6.956L15.386 23.79a2.173 2.173 0 0 1-1.218.001L8.938 6.956 14.774.424l5.89 6.532z"/>
        <path fill="#31CAFF" d="M20.664 6.956l-5.66 16.835c-.21.058-.43.088-.654.088V.424l6.314 6.532z"/>
        <path fill="#CEF8FF" d="M20.664 6.739H8.937L14.775.424z"/>
        <path fill="#50E6FF" d="M20.664 6.739H14.35V.424z"/>
    </g>
</svg>
