<svg xmlns="http://www.w3.org/2000/svg" width="48" height="48" viewBox="0 0 48 48">
    <g fill="none" fill-rule="nonzero">
        <path fill="#8AC129" d="M25.967 33.172a.71.71 0 0 1-.504-.208l-10.819-10.82a.713.713 0 0 1 1.008-1.007L26.47 31.956a.713.713 0 0 1-.504 1.216z"/>
        <path fill="#FF4C4C" d="M30.577 31.336a.71.71 0 0 1-.503-.208L16.508 17.562a.712.712 0 1 1 1.008-1.008L31.082 30.12a.713.713 0 0 1-.505 1.217z"/>
        <path fill="#8AC129" d="M32.414 26.726a.71.71 0 0 1-.504-.21L21.09 15.699A.713.713 0 0 1 22.1 14.69l10.819 10.819a.713.713 0 0 1-.504 1.217z"/>
        <path fill="#FF4C4C" d="M43.274 15.456a.71.71 0 0 1-.504-.209L32.467 4.944a.713.713 0 0 1 1.008-1.007l10.303 10.302a.712.712 0 0 1-.504 1.217zM14.697 44.032a.71.71 0 0 1-.504-.208L3.89 33.52a.713.713 0 0 1 1.008-1.008l10.303 10.303a.713.713 0 0 1-.504 1.216z"/>
        <path fill="#FFBF14" d="M13.358 30.213c-4.388-.83-8.955-.962-12.648 2.73a1.572 1.572 0 0 0 2.223 2.223c2.994-2.994 6.806-2.555 11.194-1.59-.248-1.13-.522-2.257-.769-3.363z"/>
        <path fill="#E0A812" d="M13.358 30.213a31.893 31.893 0 0 0-1.97-.314c.239 1.088.5 2.164.75 3.279.65.113 1.313.25 1.99.398-.25-1.137-.522-2.254-.77-3.363z"/>
        <path fill="#FFBF14" d="M35.12 2.979A1.571 1.571 0 1 0 32.898.756c-8.763 8.764 3.978 21.856-3.177 29.01-3.391 3.392-7.83 2.38-12.969 1.186a83.55 83.55 0 0 1 .74 3.393c4.914 1.096 10.249 1.847 14.451-2.356 8.785-8.785-3.975-21.858 3.177-29.01z"/>
        <path fill="#E0A812" d="M17.491 34.345c.588.131 1.182.258 1.779.37a67.43 67.43 0 0 0-.712-3.351c-.592-.13-1.194-.27-1.806-.412.262 1.128.525 2.259.74 3.393z"/>
        <path fill="#45748C" d="M30.906 16.798a83.886 83.886 0 0 1-.74-3.393c-4.914-1.096-10.249-1.847-14.451 2.356-8.745 8.745 3.95 21.883-3.177 29.01a1.57 1.57 0 1 0 2.222 2.222c8.819-8.818-4.015-21.818 3.177-29.01 3.391-3.391 7.83-2.379 12.969-1.185z"/>
        <path fill="#3A6175" d="M30.167 13.405a56.837 56.837 0 0 0-1.822-.379 60.55 60.55 0 0 0 .698 3.347c.61.134 1.232.278 1.863.425a83.886 83.886 0 0 1-.74-3.393z"/>
        <path fill="#45748C" d="M46.948 12.584a1.571 1.571 0 0 0-2.223 0c-2.994 2.994-6.806 2.555-11.195 1.59.251 1.14.522 2.253.77 3.363 4.854.918 9.157.76 12.648-2.731a1.572 1.572 0 0 0 0-2.222z"/>
        <path fill="#3A6175" d="M35.272 14.528c-.57-.104-1.15-.224-1.742-.354.251 1.14.522 2.253.77 3.363a32.68 32.68 0 0 0 1.725.282c-.234-1.064-.506-2.188-.753-3.29z"/>
    </g>
</svg>
