<svg xmlns="http://www.w3.org/2000/svg" width="24" height="31" viewBox="0 0 24 31">
    <g fill="none" fill-rule="nonzero">
        <path fill="#EFB30C" d="M2.051 6.012l7.735-4.824a4.099 4.099 0 0 1 4.338 0l7.736 4.824a4.099 4.099 0 0 1 1.93 3.478v12.18c0 1.414-.73 2.73-1.93 3.477l-7.736 4.824a4.099 4.099 0 0 1-4.338 0l-7.735-4.824a4.099 4.099 0 0 1-1.93-3.478V9.49c0-1.414.73-2.729 1.93-3.477z"/>
        <path fill="#FFF" d="M11.99 4.805v3.972c0 .45-.233.87-.615 1.108l-3.524 2.203a1.307 1.307 0 0 1-1.46-.05L3.493 9.94a1.307 1.307 0 0 1 .066-2.16L9.982 3.7a1.307 1.307 0 0 1 2.007 1.103v.001z" opacity=".793"/>
    </g>
</svg>
