<svg xmlns="http://www.w3.org/2000/svg" width="128" height="36" viewBox="0 0 128 36">
    <g fill="none" fill-rule="nonzero">
        <g fill="#5BCECE">
            <path d="M12.841 35.47c-.053 0-.053 0 0 0C5.39 35.47.211 30.76.211 24.036c0-6.988 5.602-12.44 12.789-12.44 5.02 0 8.19 2.17 8.349 2.223.317.211.423.635.264 1.006L19.288 19.8a.818.818 0 0 1-.581.424.8.8 0 0 1-.687-.16s-2.008-1.693-4.228-1.693c-3.012 0-4.809 1.958-4.861 5.24 0 3.177 1.638 5.083 4.386 5.083 2.747 0 4.861-1.853 4.861-1.853.212-.159.423-.265.687-.212a.818.818 0 0 1 .581.424l2.114 4.606a.72.72 0 0 1-.106.847c-.158.159-2.747 2.965-8.613 2.965zM44.758 34.994h-6.975c-.211 0-.423-.106-.581-.212-.159-.158-.212-.37-.212-.582l.053-11.594c0-1.43-.105-2.382-.317-2.912-.105-.318-.264-.37-.581-.37-.898 0-2.22.847-3.593 2.276l-.053 12.6c0 .212-.106.424-.212.582-.158.16-.37.212-.58.212h-7.03a.813.813 0 0 1-.792-.794l.053-32.135c0-.37.264-.741.687-.794L31.653.159c.212-.053.476.053.634.159a.85.85 0 0 1 .265.582l-.053 13.182c1.902-1.64 4.069-2.488 6.341-2.488 2.22 0 3.91.688 5.02 2.012 1.11 1.27 1.691 3.176 1.638 5.665l-.053 14.876c.106.53-.21.847-.687.847zM60.242 35.312c-.053 0-.053 0 0 0-3.7 0-6.711-1.218-8.825-3.494-1.903-2.065-2.96-4.924-2.96-8.1 0-6.83 4.756-11.753 11.203-11.753 6.13 0 9.776 4.34 9.83 11.488 0 .265-.16.423-.37.53l-3.647 1.005h-.053L56.807 26.1c.581 1.482 1.796 2.965 4.333 2.965 3.118 0 6.13-2.383 6.183-2.436.158-.105.317-.158.475-.105.159.052.317.158.37.317l1.797 4.818c.106.212 0 .476-.159.582-.211.212-3.963 3.07-9.564 3.07zm-1.163-17.206c-1.427 0-2.378 1.218-2.695 3.335l4.703-.635c-.106-.9-.528-2.7-2.008-2.7zM84.814 35.682c-7.451 0-12.63-4.711-12.63-11.435 0-3.282 1.269-6.353 3.594-8.682 2.378-2.383 5.601-3.706 9.142-3.706h.052c5.02 0 8.191 2.17 8.35 2.223.317.212.422.636.264 1.006l-2.325 4.977a.84.84 0 0 1-.529.423.8.8 0 0 1-.687-.159s-2.008-1.694-4.227-1.694c-.951 0-2.325.212-3.382 1.218-.951.9-1.48 2.276-1.48 4.023 0 3.177 1.638 5.083 4.386 5.083 2.801 0 4.81-1.853 4.862-1.853.211-.159.423-.265.687-.212a.818.818 0 0 1 .581.424l2.114 4.606a.72.72 0 0 1-.106.847c-.158.105-2.748 2.911-8.666 2.911z"/>
        </g>
        <path fill="#FB0" d="M118.105 35.312a.508.508 0 0 1-.475-.37c-.529-1.43-1.11-2.86-1.797-4.236-.898-1.853-2.008-3.6-3.223-5.294-.159-.212-.159-.477 0-.636.58-.688 1.162-1.429 1.743-2.117.793-.953 1.691-1.853 2.537-2.7a.57.57 0 0 1 .37-.159.48.48 0 0 1 .37.159c2.06 2.382 3.804 5.082 5.073 7.994.898 2.065 1.638 4.235 2.06 6.459a.412.412 0 0 1-.105.423c-.106.106-.264.212-.423.212l-6.13.265z"/>
        <path fill="#FB6542" d="M106.955 35.1c-.105 0-.211 0-.317-.053l-5.601-2.33c-.317-.105-.529-.476-.476-.793a26.361 26.361 0 0 0-.475-7.624c-.634-2.806-1.744-5.4-3.277-7.835a.893.893 0 0 1 .212-1.112l5.337-3.494c.158-.106.423-.159.634-.106.211.053.37.212.476.37a63.819 63.819 0 0 1 1.69 3.283c.899 1.8 1.639 3.706 2.326 5.612a40.418 40.418 0 0 1 8.666-8.842 39.325 39.325 0 0 1 7.768-4.552c.37-.16.846 0 1.057.37l2.642 5.188c.212.37.053.847-.317 1.06a43.29 43.29 0 0 0-7.926 5.505c-2.907 2.541-4.756 4.924-6.236 6.777-2.008 2.54-3.858 5.24-5.443 8.1-.158.317-.423.476-.74.476z"/>
    </g>
</svg>
