<svg xmlns="http://www.w3.org/2000/svg" width="46" height="42" viewBox="0 0 46 42">
    <g fill="none" fill-rule="nonzero">
        <path fill="#FFF" d="M36.567 12.49l-.06-.032c0-.023.002-.046.003-.068.168-4.78-1.314-8.32-4.173-9.971C29.477.768 25.67 1.255 21.616 3.79l-.058.037-.058-.037C17.446 1.255 13.638.768 10.78 2.419c-2.86 1.65-4.341 5.192-4.173 9.97l.003.069c-.02.01-.04.02-.06.032C2.326 14.733 0 17.787 0 21.089c0 3.301 2.326 6.355 6.549 8.598l.06.032-.002.068c-.169 4.78 1.313 8.32 4.172 9.971 1.113.643 2.37.962 3.728.962 2.133 0 4.517-.785 6.993-2.334l.058-.037.058.037c2.476 1.55 4.86 2.334 6.993 2.334 1.359 0 2.615-.32 3.728-.962 2.86-1.65 4.341-5.191 4.173-9.97l-.003-.069c.02-.01.04-.02.06-.032 4.224-2.243 6.55-5.297 6.55-8.598 0-3.302-2.327-6.356-6.55-8.6zM30.17 26.06a37.021 37.021 0 0 1-3.105 4.567 37.026 37.026 0 0 1-5.507.405c-1.891 0-3.74-.138-5.507-.405a37.021 37.021 0 0 1-3.104-4.567 37.026 37.026 0 0 1-2.403-4.971 37.032 37.032 0 0 1 2.403-4.972 37.032 37.032 0 0 1 3.104-4.567 37.025 37.025 0 0 1 5.507-.405c1.892 0 3.74.138 5.507.405a37.021 37.021 0 0 1 3.105 4.567 37.032 37.032 0 0 1 2.403 4.972 37.008 37.008 0 0 1-2.403 4.971zm3.354-2.186c.463 1.593.775 3.157.924 4.657a26.036 26.036 0 0 1-4.495 1.528 39.774 39.774 0 0 0 3.571-6.185zM21.558 35.973a26.032 26.032 0 0 1-3.57-3.129 39.772 39.772 0 0 0 7.141 0 26.032 26.032 0 0 1-3.57 3.129zm-8.395-5.914a26.036 26.036 0 0 1-4.495-1.528c.15-1.5.461-3.064.924-4.657a39.765 39.765 0 0 0 3.571 6.185zm-1.924-14.928a39.765 39.765 0 0 0-1.647 3.172 26.036 26.036 0 0 1-.924-4.656 26.044 26.044 0 0 1 4.495-1.529c-.676.96-1.32 1.966-1.924 3.013zm10.32-8.927a26.032 26.032 0 0 1 3.57 3.129 39.774 39.774 0 0 0-7.142 0 26.05 26.05 0 0 1 3.571-3.129zm10.318 8.927a39.794 39.794 0 0 0-1.924-3.013c1.611.396 3.122.908 4.495 1.528-.15 1.5-.461 3.064-.924 4.657a39.812 39.812 0 0 0-1.647-3.172zM28.6 3.43c1.018 0 1.945.23 2.752.696 2.053 1.186 3.176 3.804 3.2 7.417-1.949-.806-4.12-1.419-6.432-1.819-1.502-1.8-3.117-3.375-4.79-4.66 1.907-1.083 3.698-1.634 5.27-1.634zm-16.834.696c.807-.466 1.734-.696 2.753-.696 1.572 0 3.363.551 5.268 1.635-1.671 1.284-3.287 2.858-4.789 4.66-2.31.4-4.483 1.012-6.431 1.818.023-3.613 1.146-6.231 3.199-7.417zM1.972 21.09c0-2.37 1.706-4.652 4.823-6.479.276 2.09.832 4.277 1.64 6.479-.808 2.201-1.364 4.388-1.64 6.478-3.117-1.827-4.823-4.108-4.823-6.478zm9.793 16.962c-2.053-1.185-3.176-3.803-3.199-7.417 1.948.807 4.12 1.419 6.431 1.819 1.502 1.801 3.118 3.376 4.79 4.66-3.14 1.786-5.97 2.123-8.022.938zm19.586 0c-2.052 1.185-4.881.848-8.022-.938 1.672-1.284 3.288-2.859 4.79-4.66 2.311-.4 4.483-1.012 6.431-1.819-.023 3.614-1.146 6.232-3.199 7.417zm4.97-10.484c-.276-2.09-.832-4.277-1.64-6.478.808-2.202 1.364-4.389 1.64-6.48 3.117 1.828 4.823 4.11 4.823 6.48s-1.705 4.651-4.823 6.478z"/>
        <circle cx="42.13" cy="21.089" r="3.222" fill="#ABCB57"/>
        <circle cx="11.374" cy="38.728" r="3.222" fill="#E5C400"/>
        <circle cx="11.272" cy="3.272" r="3.222" fill="#C8523B"/>
        <circle cx="21.493" cy="21.099" r="3.222" fill="#808083"/>
    </g>
</svg>
