<svg xmlns="http://www.w3.org/2000/svg" width="18" height="19" viewBox="0 0 18 19">
    <path fill="#9B9B9B" fill-rule="nonzero" d="M17.69 16.952l-4.4-4.577a7.44 7.44 0 0 0 1.75-4.799c0-4.116-3.348-7.465-7.464-7.465C3.46.111.111 3.46.111 7.576s3.349 7.465 7.465 7.465a7.385 7.385 0 0 0 4.277-1.35l4.434 4.61a.966.966 0 0 0 .701.299.975.975 0 0 0 .702-1.648zM7.576 2.058a5.524 5.524 0 0 1 5.518 5.518 5.524 5.524 0 0 1-5.518 5.518 5.524 5.524 0 0 1-5.518-5.518 5.524 5.524 0 0 1 5.518-5.518z"/>
</svg>
