<svg xmlns="http://www.w3.org/2000/svg" xmlns:xlink="http://www.w3.org/1999/xlink" width="29" height="29" viewBox="0 0 29 29">
    <defs>
        <circle id="a" cx="14.5" cy="14.5" r="14.5"/>
    </defs>
    <g fill="none" fill-rule="evenodd">
        <mask id="b" fill="#fff">
            <use xlink:href="#a"/>
        </mask>
        <use fill="#55CECF" xlink:href="#a"/>
        <g fill="#1D262C" fill-rule="nonzero" mask="url(#b)">
            <path d="M14.423 19.063c1.932 0 3.605-.693 4.972-2.06 1.366-1.367 2.06-3.04 2.06-4.972 0-1.931-.693-3.604-2.06-4.971S16.355 5 14.423 5c-1.932 0-3.604.693-4.971 2.06s-2.06 3.04-2.06 4.971c0 1.932.693 3.605 2.06 4.972 1.367 1.366 3.04 2.06 4.971 2.06zM10.662 8.268c1.049-1.048 2.279-1.558 3.761-1.558 1.482 0 2.713.51 3.762 1.558 1.049 1.05 1.559 2.28 1.559 3.762 0 1.482-.51 2.713-1.559 3.762s-2.28 1.559-3.762 1.559c-1.482 0-2.712-.51-3.761-1.56-1.05-1.048-1.56-2.279-1.56-3.761 0-1.482.51-2.713 1.56-3.762z"/>
            <path d="M27.018 27.877c-.04-.6-.124-1.256-.246-1.948a15.553 15.553 0 0 0-.471-1.959 9.755 9.755 0 0 0-.793-1.826 6.874 6.874 0 0 0-1.194-1.583 5.257 5.257 0 0 0-1.717-1.095 5.848 5.848 0 0 0-2.19-.403c-.31 0-.61.129-1.189.512-.356.235-.772.508-1.237.81-.397.257-.936.498-1.6.717a6.265 6.265 0 0 1-1.959.321 6.27 6.27 0 0 1-1.958-.321c-.664-.218-1.203-.46-1.6-.717-.46-.299-.876-.571-1.238-.81-.578-.383-.877-.512-1.187-.512a5.84 5.84 0 0 0-2.19.403 5.253 5.253 0 0 0-1.717 1.096c-.451.438-.853.97-1.195 1.582a9.773 9.773 0 0 0-.792 1.827 15.59 15.59 0 0 0-.471 1.958 18.495 18.495 0 0 0-.246 1.949c-.04.588-.061 1.201-.061 1.82 0 1.61.503 2.912 1.496 3.873C4.243 34.52 5.541 35 7.12 35h14.609c1.577 0 2.874-.48 3.855-1.429.993-.96 1.497-2.263 1.497-3.873 0-.621-.021-1.234-.062-1.821zm-2.66 4.385c-.649.627-1.509.931-2.63.931H7.117c-1.121 0-1.981-.304-2.629-.93-.635-.615-.944-1.454-.944-2.565 0-.578.019-1.148.056-1.695.037-.538.112-1.128.222-1.755.11-.62.25-1.2.415-1.727a7.956 7.956 0 0 1 .645-1.485c.257-.459.552-.852.878-1.17.305-.296.689-.538 1.142-.72.418-.169.89-.261 1.4-.275.062.034.173.098.353.217.365.242.786.518 1.252.82.525.34 1.202.648 2.01.913.826.271 1.668.409 2.505.409a8.02 8.02 0 0 0 2.504-.41c.81-.265 1.485-.572 2.01-.912.478-.31.887-.578 1.253-.82.18-.119.29-.183.352-.217.511.014.982.106 1.4.275.453.182.838.425 1.143.72.325.318.62.711.878 1.17.269.481.486.981.645 1.485.166.527.305 1.108.414 1.727.111.628.186 1.219.223 1.755.037.546.056 1.116.057 1.695 0 1.111-.31 1.95-.945 2.564z"/>
        </g>
    </g>
</svg>
